# xmcd
#
# Track frame offsets:
#	150
#	14236
#	34020
#	52299
#	81555
#	106316
#	127092
#	141137
#	161296
#	178519
#	197501
#	221382
#
# Disc length: 3202 seconds
#
# Revision: 0
# Processed by: cddbd v1.5.2PL0 Copyright (c) Steve Scherf et al.
# Submitted via: dBpowerAMP V4.0
#
DISCID=ad0c800c
DTITLE=Various Artist - D-Day
DYEAR=1999
DGENRE=Blues
TTITLE0=D-Regulators - The Regulator
TTITLE1=I Am Not A Crook
TTITLE2=Thank You, That'll Do!!!
TTITLE3=In The Meantime, Somewhere Else
TTITLE4=Your Place Or Mine?
TTITLE5=The Tattoos Of The Blues
TTITLE6=As Long As You Live (You'll Be Dead If You Die)
TTITLE7=Everybody's Cryin' Mercy
TTITLE8=The Pleasure's All Yours
TTITLE9=Just Making Conversation
TTITLE10=Ready When You Are
TTITLE11=Talking Two Minutes
EXTD=
EXTT0=
EXTT1=
EXTT2=
EXTT3=
EXTT4=
EXTT5=
EXTT6=
EXTT7=
EXTT8=
EXTT9=
EXTT10=
EXTT11=
PLAYORDER=
